<svg xmlns="http://www.w3.org/2000/svg" xmlns:xlink="http://www.w3.org/1999/xlink" width="192" zoomAndPan="magnify" viewBox="0 0 144 143.999998" height="192" preserveAspectRatio="xMidYMid meet" version="1.0"><defs><filter x="0%" y="0%" width="100%" height="100%" id="ab3b005fb3"><feColorMatrix values="0 0 0 0 1 0 0 0 0 1 0 0 0 0 1 0 0 0 1 0" color-interpolation-filters="sRGB"/></filter><g/><clipPath id="d4ffcbe95b"><rect x="0" width="24" y="0" height="18"/></clipPath><clipPath id="609086a81f"><path d="M 0.121094 0.320312 L 14 0.320312 L 14 14 L 0.121094 14 Z M 0.121094 0.320312 " clip-rule="nonzero"/></clipPath><clipPath id="c813ba1ea3"><path d="M 12 0.320312 L 23 0.320312 L 23 14 L 12 14 Z M 12 0.320312 " clip-rule="nonzero"/></clipPath><clipPath id="5a30b3aa73"><rect x="0" width="24" y="0" height="18"/></clipPath><clipPath id="768c484533"><path d="M 47.890625 29.59375 L 119.890625 29.59375 L 119.890625 83.59375 L 47.890625 83.59375 Z M 47.890625 29.59375 " clip-rule="nonzero"/></clipPath><clipPath id="6e5070a5bf"><path d="M 0.890625 0.59375 L 72.890625 0.59375 L 72.890625 54.59375 L 0.890625 54.59375 Z M 0.890625 0.59375 " clip-rule="nonzero"/></clipPath><clipPath id="6492f00384"><path d="M 1.640625 0.59375 L 71.386719 0.59375 L 71.386719 54.59375 L 1.640625 54.59375 Z M 1.640625 0.59375 " clip-rule="nonzero"/></clipPath><linearGradient x1="-25.746" gradientTransform="matrix(0.748161, 0, 0, 0.751551, 20.902419, 20.833998)" y1="9" x2="67.479998" gradientUnits="userSpaceOnUse" y2="9" id="d4a394f732"><stop stop-opacity="1" stop-color="rgb(0%, 0%, 0%)" offset="0"/><stop stop-opacity="1" stop-color="rgb(0%, 0%, 0%)" offset="0.25"/><stop stop-opacity="1" stop-color="rgb(0%, 0%, 0%)" offset="0.28125"/><stop stop-opacity="1" stop-color="rgb(0.00762939%, 0.00762939%, 0.00762939%)" offset="0.289062"/><stop stop-opacity="1" stop-color="rgb(0.431824%, 0.431824%, 0.431824%)" offset="0.292969"/><stop stop-opacity="1" stop-color="rgb(0.849915%, 0.849915%, 0.849915%)" offset="0.296875"/><stop stop-opacity="1" stop-color="rgb(1.266479%, 1.266479%, 1.266479%)" offset="0.300781"/><stop stop-opacity="1" stop-color="rgb(1.68457%, 1.68457%, 1.68457%)" offset="0.304688"/><stop stop-opacity="1" stop-color="rgb(2.101135%, 2.101135%, 2.101135%)" offset="0.308594"/><stop stop-opacity="1" stop-color="rgb(2.519226%, 2.519226%, 2.519226%)" offset="0.3125"/><stop stop-opacity="1" stop-color="rgb(2.935791%, 2.935791%, 2.935791%)" offset="0.316406"/><stop stop-opacity="1" stop-color="rgb(3.353882%, 3.353882%, 3.353882%)" offset="0.320312"/><stop stop-opacity="1" stop-color="rgb(3.770447%, 3.770447%, 3.770447%)" offset="0.324219"/><stop stop-opacity="1" stop-color="rgb(4.188538%, 4.188538%, 4.188538%)" offset="0.328125"/><stop stop-opacity="1" stop-color="rgb(4.605103%, 4.605103%, 4.605103%)" offset="0.332031"/><stop stop-opacity="1" stop-color="rgb(5.023193%, 5.023193%, 5.023193%)" offset="0.335938"/><stop stop-opacity="1" stop-color="rgb(5.439758%, 5.439758%, 5.439758%)" offset="0.339844"/><stop stop-opacity="1" stop-color="rgb(5.857849%, 5.857849%, 5.857849%)" offset="0.34375"/><stop stop-opacity="1" stop-color="rgb(6.274414%, 6.274414%, 6.274414%)" offset="0.347656"/><stop stop-opacity="1" stop-color="rgb(6.692505%, 6.692505%, 6.692505%)" offset="0.351562"/><stop stop-opacity="1" stop-color="rgb(7.10907%, 7.10907%, 7.10907%)" offset="0.355469"/><stop stop-opacity="1" stop-color="rgb(7.527161%, 7.527161%, 7.527161%)" offset="0.359375"/><stop stop-opacity="1" stop-color="rgb(7.943726%, 7.943726%, 7.943726%)" offset="0.363281"/><stop stop-opacity="1" stop-color="rgb(8.361816%, 8.361816%, 8.361816%)" offset="0.367188"/><stop stop-opacity="1" stop-color="rgb(8.778381%, 8.778381%, 8.778381%)" offset="0.371094"/><stop stop-opacity="1" stop-color="rgb(9.194946%, 9.194946%, 9.194946%)" offset="0.375"/><stop stop-opacity="1" stop-color="rgb(9.611511%, 9.611511%, 9.611511%)" offset="0.378906"/><stop stop-opacity="1" stop-color="rgb(10.029602%, 10.029602%, 10.029602%)" offset="0.382812"/><stop stop-opacity="1" stop-color="rgb(10.446167%, 10.446167%, 10.446167%)" offset="0.386719"/><stop stop-opacity="1" stop-color="rgb(10.864258%, 10.864258%, 10.864258%)" offset="0.390625"/><stop stop-opacity="1" stop-color="rgb(11.280823%, 11.280823%, 11.280823%)" offset="0.394531"/><stop stop-opacity="1" stop-color="rgb(11.698914%, 11.698914%, 11.698914%)" offset="0.398438"/><stop stop-opacity="1" stop-color="rgb(12.115479%, 12.115479%, 12.115479%)" offset="0.402344"/><stop stop-opacity="1" stop-color="rgb(12.533569%, 12.533569%, 12.533569%)" offset="0.40625"/><stop stop-opacity="1" stop-color="rgb(12.950134%, 12.950134%, 12.950134%)" offset="0.410156"/><stop stop-opacity="1" stop-color="rgb(13.368225%, 13.368225%, 13.368225%)" offset="0.414062"/><stop stop-opacity="1" stop-color="rgb(13.78479%, 13.78479%, 13.78479%)" offset="0.417969"/><stop stop-opacity="1" stop-color="rgb(14.202881%, 14.202881%, 14.202881%)" offset="0.421875"/><stop stop-opacity="1" stop-color="rgb(14.619446%, 14.619446%, 14.619446%)" offset="0.425781"/><stop stop-opacity="1" stop-color="rgb(15.037537%, 15.037537%, 15.037537%)" offset="0.429688"/><stop stop-opacity="1" stop-color="rgb(15.454102%, 15.454102%, 15.454102%)" offset="0.433594"/><stop stop-opacity="1" stop-color="rgb(15.872192%, 15.872192%, 15.872192%)" offset="0.4375"/><stop stop-opacity="1" stop-color="rgb(16.288757%, 16.288757%, 16.288757%)" offset="0.441406"/><stop stop-opacity="1" stop-color="rgb(16.706848%, 16.706848%, 16.706848%)" offset="0.445312"/><stop stop-opacity="1" stop-color="rgb(17.123413%, 17.123413%, 17.123413%)" offset="0.449219"/><stop stop-opacity="1" stop-color="rgb(17.541504%, 17.541504%, 17.541504%)" offset="0.453125"/><stop stop-opacity="1" stop-color="rgb(17.958069%, 17.958069%, 17.958069%)" offset="0.457031"/><stop stop-opacity="1" stop-color="rgb(18.37616%, 18.37616%, 18.37616%)" offset="0.460938"/><stop stop-opacity="1" stop-color="rgb(18.792725%, 18.792725%, 18.792725%)" offset="0.464844"/><stop stop-opacity="1" stop-color="rgb(19.210815%, 19.210815%, 19.210815%)" offset="0.46875"/><stop stop-opacity="1" stop-color="rgb(19.62738%, 19.62738%, 19.62738%)" offset="0.472656"/><stop stop-opacity="1" stop-color="rgb(20.045471%, 20.045471%, 20.045471%)" offset="0.476562"/><stop stop-opacity="1" stop-color="rgb(20.462036%, 20.462036%, 20.462036%)" offset="0.480469"/><stop stop-opacity="1" stop-color="rgb(20.880127%, 20.880127%, 20.880127%)" offset="0.484375"/><stop stop-opacity="1" stop-color="rgb(21.296692%, 21.296692%, 21.296692%)" offset="0.488281"/><stop stop-opacity="1" stop-color="rgb(21.714783%, 21.714783%, 21.714783%)" offset="0.492187"/><stop stop-opacity="1" stop-color="rgb(22.131348%, 22.131348%, 22.131348%)" offset="0.496094"/><stop stop-opacity="1" stop-color="rgb(22.547913%, 22.547913%, 22.547913%)" offset="0.5"/><stop stop-opacity="1" stop-color="rgb(22.964478%, 22.964478%, 22.964478%)" offset="0.503906"/><stop stop-opacity="1" stop-color="rgb(23.382568%, 23.382568%, 23.382568%)" offset="0.507812"/><stop stop-opacity="1" stop-color="rgb(23.799133%, 23.799133%, 23.799133%)" offset="0.511719"/><stop stop-opacity="1" stop-color="rgb(24.217224%, 24.217224%, 24.217224%)" offset="0.515625"/><stop stop-opacity="1" stop-color="rgb(24.633789%, 24.633789%, 24.633789%)" offset="0.519531"/><stop stop-opacity="1" stop-color="rgb(25.05188%, 25.05188%, 25.05188%)" offset="0.523438"/><stop stop-opacity="1" stop-color="rgb(25.468445%, 25.468445%, 25.468445%)" offset="0.527344"/><stop stop-opacity="1" stop-color="rgb(25.886536%, 25.886536%, 25.886536%)" offset="0.53125"/><stop stop-opacity="1" stop-color="rgb(26.303101%, 26.303101%, 26.303101%)" offset="0.535156"/><stop stop-opacity="1" stop-color="rgb(26.721191%, 26.721191%, 26.721191%)" offset="0.539062"/><stop stop-opacity="1" stop-color="rgb(27.137756%, 27.137756%, 27.137756%)" offset="0.542969"/><stop stop-opacity="1" stop-color="rgb(27.555847%, 27.555847%, 27.555847%)" offset="0.546875"/><stop stop-opacity="1" stop-color="rgb(27.972412%, 27.972412%, 27.972412%)" offset="0.550781"/><stop stop-opacity="1" stop-color="rgb(28.390503%, 28.390503%, 28.390503%)" offset="0.554688"/><stop stop-opacity="1" stop-color="rgb(28.807068%, 28.807068%, 28.807068%)" offset="0.558594"/><stop stop-opacity="1" stop-color="rgb(29.225159%, 29.225159%, 29.225159%)" offset="0.5625"/><stop stop-opacity="1" stop-color="rgb(29.641724%, 29.641724%, 29.641724%)" offset="0.566406"/><stop stop-opacity="1" stop-color="rgb(30.059814%, 30.059814%, 30.059814%)" offset="0.570312"/><stop stop-opacity="1" stop-color="rgb(30.476379%, 30.476379%, 30.476379%)" offset="0.574219"/><stop stop-opacity="1" stop-color="rgb(30.89447%, 30.89447%, 30.89447%)" offset="0.578125"/><stop stop-opacity="1" stop-color="rgb(31.311035%, 31.311035%, 31.311035%)" offset="0.582031"/><stop stop-opacity="1" stop-color="rgb(31.729126%, 31.729126%, 31.729126%)" offset="0.585938"/><stop stop-opacity="1" stop-color="rgb(32.145691%, 32.145691%, 32.145691%)" offset="0.589844"/><stop stop-opacity="1" stop-color="rgb(32.563782%, 32.563782%, 32.563782%)" offset="0.59375"/><stop stop-opacity="1" stop-color="rgb(32.980347%, 32.980347%, 32.980347%)" offset="0.597656"/><stop stop-opacity="1" stop-color="rgb(33.398438%, 33.398438%, 33.398438%)" offset="0.601562"/><stop stop-opacity="1" stop-color="rgb(33.815002%, 33.815002%, 33.815002%)" offset="0.605469"/><stop stop-opacity="1" stop-color="rgb(34.233093%, 34.233093%, 34.233093%)" offset="0.609375"/><stop stop-opacity="1" stop-color="rgb(34.649658%, 34.649658%, 34.649658%)" offset="0.613281"/><stop stop-opacity="1" stop-color="rgb(35.067749%, 35.067749%, 35.067749%)" offset="0.617188"/><stop stop-opacity="1" stop-color="rgb(35.484314%, 35.484314%, 35.484314%)" offset="0.621094"/><stop stop-opacity="1" stop-color="rgb(35.902405%, 35.902405%, 35.902405%)" offset="0.625"/><stop stop-opacity="1" stop-color="rgb(36.31897%, 36.31897%, 36.31897%)" offset="0.628906"/><stop stop-opacity="1" stop-color="rgb(36.735535%, 36.735535%, 36.735535%)" offset="0.632812"/><stop stop-opacity="1" stop-color="rgb(37.1521%, 37.1521%, 37.1521%)" offset="0.636719"/><stop stop-opacity="1" stop-color="rgb(37.57019%, 37.57019%, 37.57019%)" offset="0.640625"/><stop stop-opacity="1" stop-color="rgb(37.986755%, 37.986755%, 37.986755%)" offset="0.644531"/><stop stop-opacity="1" stop-color="rgb(38.404846%, 38.404846%, 38.404846%)" offset="0.648438"/><stop stop-opacity="1" stop-color="rgb(38.821411%, 38.821411%, 38.821411%)" offset="0.652344"/><stop stop-opacity="1" stop-color="rgb(39.239502%, 39.239502%, 39.239502%)" offset="0.65625"/><stop stop-opacity="1" stop-color="rgb(39.656067%, 39.656067%, 39.656067%)" offset="0.660156"/><stop stop-opacity="1" stop-color="rgb(40.074158%, 40.074158%, 40.074158%)" offset="0.664062"/><stop stop-opacity="1" stop-color="rgb(40.490723%, 40.490723%, 40.490723%)" offset="0.667969"/><stop stop-opacity="1" stop-color="rgb(40.908813%, 40.908813%, 40.908813%)" offset="0.671875"/><stop stop-opacity="1" stop-color="rgb(41.325378%, 41.325378%, 41.325378%)" offset="0.675781"/><stop stop-opacity="1" stop-color="rgb(41.743469%, 41.743469%, 41.743469%)" offset="0.679687"/><stop stop-opacity="1" stop-color="rgb(42.160034%, 42.160034%, 42.160034%)" offset="0.683594"/><stop stop-opacity="1" stop-color="rgb(42.578125%, 42.578125%, 42.578125%)" offset="0.6875"/><stop stop-opacity="1" stop-color="rgb(42.99469%, 42.99469%, 42.99469%)" offset="0.691406"/><stop stop-opacity="1" stop-color="rgb(43.412781%, 43.412781%, 43.412781%)" offset="0.695312"/><stop stop-opacity="1" stop-color="rgb(43.829346%, 43.829346%, 43.829346%)" offset="0.699219"/><stop stop-opacity="1" stop-color="rgb(44.247437%, 44.247437%, 44.247437%)" offset="0.703125"/><stop stop-opacity="1" stop-color="rgb(44.664001%, 44.664001%, 44.664001%)" offset="0.707031"/><stop stop-opacity="1" stop-color="rgb(45.082092%, 45.082092%, 45.082092%)" offset="0.710938"/><stop stop-opacity="1" stop-color="rgb(45.089722%, 45.089722%, 45.089722%)" offset="0.71875"/><stop stop-opacity="1" stop-color="rgb(45.098877%, 45.098877%, 45.098877%)" offset="0.75"/><stop stop-opacity="1" stop-color="rgb(45.098877%, 45.098877%, 45.098877%)" offset="1"/></linearGradient><clipPath id="0dbb682987"><rect x="0" width="73" y="0" height="55"/></clipPath><clipPath id="d77a582837"><path d="M 0.890625 0.59375 L 72.890625 0.59375 L 72.890625 54.59375 L 0.890625 54.59375 Z M 0.890625 0.59375 " clip-rule="nonzero"/></clipPath><clipPath id="d1bbd9c6b0"><rect x="0" width="73" y="0" height="55"/></clipPath><clipPath id="b2b91c1bc8"><rect x="0" width="73" y="0" height="55"/></clipPath><mask id="bfe8fe29fa"><g filter="url(#ab3b005fb3)"><g transform="matrix(1, 0, 0, 1, -0.000000000000007105, -0.000000000000014211)"><g clip-path="url(#b2b91c1bc8)"><g clip-path="url(#d77a582837)"><g transform="matrix(1, 0, 0, 1, -0.000000000000007105, -0.000000000000014211)"><g clip-path="url(#d1bbd9c6b0)"><g fill="#000000" fill-opacity="1"><g transform="translate(22.029909, 31.342464)"><g><path d="M 3.921875 0 L 2.4375 -5.1875 L 2.40625 -5.1875 C 2.414062 -5.050781 2.425781 -4.867188 2.4375 -4.640625 C 2.457031 -4.410156 2.472656 -4.160156 2.484375 -3.890625 C 2.492188 -3.628906 2.5 -3.375 2.5 -3.125 L 2.5 0 L 0.78125 0 L 0.78125 -7.203125 L 3.375 -7.203125 L 4.875 -2.09375 L 4.90625 -2.09375 L 6.390625 -7.203125 L 8.984375 -7.203125 L 8.984375 0 L 7.203125 0 L 7.203125 -3.15625 C 7.203125 -3.382812 7.203125 -3.628906 7.203125 -3.890625 C 7.210938 -4.148438 7.222656 -4.394531 7.234375 -4.625 C 7.242188 -4.863281 7.253906 -5.050781 7.265625 -5.1875 L 7.21875 -5.1875 L 5.765625 0 Z M 3.921875 0 "/></g></g></g><g fill="#000000" fill-opacity="1"><g transform="translate(31.784738, 31.342464)"><g><path d="M 3.171875 -5.6875 C 3.710938 -5.6875 4.179688 -5.585938 4.578125 -5.390625 C 4.972656 -5.203125 5.273438 -4.921875 5.484375 -4.546875 C 5.703125 -4.171875 5.8125 -3.695312 5.8125 -3.125 L 5.8125 -2.265625 L 2.375 -2.265625 C 2.382812 -1.972656 2.488281 -1.734375 2.6875 -1.546875 C 2.894531 -1.359375 3.195312 -1.265625 3.59375 -1.265625 C 3.9375 -1.265625 4.253906 -1.300781 4.546875 -1.375 C 4.835938 -1.445312 5.140625 -1.554688 5.453125 -1.703125 L 5.453125 -0.3125 C 5.179688 -0.164062 4.882812 -0.0625 4.5625 0 C 4.25 0.0625 3.847656 0.09375 3.359375 0.09375 C 2.796875 0.09375 2.289062 -0.00390625 1.84375 -0.203125 C 1.40625 -0.398438 1.054688 -0.707031 0.796875 -1.125 C 0.546875 -1.550781 0.421875 -2.09375 0.421875 -2.75 C 0.421875 -3.425781 0.535156 -3.976562 0.765625 -4.40625 C 0.992188 -4.84375 1.316406 -5.164062 1.734375 -5.375 C 2.148438 -5.582031 2.628906 -5.6875 3.171875 -5.6875 Z M 3.25 -4.375 C 3.019531 -4.375 2.828125 -4.300781 2.671875 -4.15625 C 2.523438 -4.007812 2.4375 -3.785156 2.40625 -3.484375 L 4.0625 -3.484375 C 4.0625 -3.648438 4.03125 -3.800781 3.96875 -3.9375 C 3.90625 -4.070312 3.8125 -4.175781 3.6875 -4.25 C 3.570312 -4.332031 3.425781 -4.375 3.25 -4.375 Z M 3.25 -4.375 "/></g></g></g><g fill="#000000" fill-opacity="1"><g transform="translate(38.021916, 31.342464)"><g><path d="M 4.15625 -5.6875 C 4.726562 -5.6875 5.195312 -5.519531 5.5625 -5.1875 C 5.925781 -4.863281 6.109375 -4.34375 6.109375 -3.625 L 6.109375 0 L 4.1875 0 L 4.1875 -3.046875 C 4.1875 -3.421875 4.132812 -3.703125 4.03125 -3.890625 C 3.925781 -4.078125 3.753906 -4.171875 3.515625 -4.171875 C 3.148438 -4.171875 2.90625 -4.019531 2.78125 -3.71875 C 2.65625 -3.425781 2.59375 -3 2.59375 -2.4375 L 2.59375 0 L 0.671875 0 L 0.671875 -5.578125 L 2.125 -5.578125 L 2.375 -4.84375 L 2.453125 -4.84375 C 2.566406 -5.019531 2.707031 -5.171875 2.875 -5.296875 C 3.039062 -5.421875 3.226562 -5.515625 3.4375 -5.578125 C 3.65625 -5.648438 3.894531 -5.6875 4.15625 -5.6875 Z M 4.15625 -5.6875 "/></g></g></g><g fill="#000000" fill-opacity="1"><g transform="translate(44.781323, 31.342464)"><g><path d="M 6.09375 -5.578125 L 6.09375 0 L 4.640625 0 L 4.40625 -0.6875 L 4.28125 -0.6875 C 4.164062 -0.5 4.019531 -0.347656 3.84375 -0.234375 C 3.675781 -0.117188 3.484375 -0.0351562 3.265625 0.015625 C 3.054688 0.0664062 2.835938 0.09375 2.609375 0.09375 C 2.242188 0.09375 1.910156 0.0234375 1.609375 -0.109375 C 1.316406 -0.253906 1.082031 -0.476562 0.90625 -0.78125 C 0.738281 -1.082031 0.65625 -1.472656 0.65625 -1.953125 L 0.65625 -5.578125 L 2.578125 -5.578125 L 2.578125 -2.53125 C 2.578125 -2.164062 2.628906 -1.890625 2.734375 -1.703125 C 2.835938 -1.515625 3.007812 -1.421875 3.25 -1.421875 C 3.488281 -1.421875 3.675781 -1.484375 3.8125 -1.609375 C 3.945312 -1.742188 4.039062 -1.941406 4.09375 -2.203125 C 4.144531 -2.460938 4.171875 -2.773438 4.171875 -3.140625 L 4.171875 -5.578125 Z M 6.09375 -5.578125 "/></g></g></g></g></g></g></g></g></g></mask><clipPath id="e3669a1e5b"><path d="M 1.640625 0.59375 L 71.386719 0.59375 L 71.386719 54.59375 L 1.640625 54.59375 Z M 1.640625 0.59375 " clip-rule="nonzero"/></clipPath><clipPath id="3e10c15bb6"><rect x="0" width="73" y="0" height="55"/></clipPath><clipPath id="b1c762fa96"><rect x="0" width="73" y="0" height="55"/></clipPath><clipPath id="014c92d120"><rect x="0" width="10" y="0" height="9"/></clipPath><clipPath id="8e00b71431"><path d="M 12 3 L 16 3 L 16 7 L 12 7 Z M 12 3 " clip-rule="nonzero"/></clipPath><clipPath id="cda7dc83b0"><path d="M 14.128906 2.148438 L 16.148438 3.726562 L 13.308594 7.363281 L 11.289062 5.785156 Z M 14.128906 2.148438 " clip-rule="nonzero"/></clipPath><clipPath id="aafcff6cdc"><path d="M 14.128906 2.148438 L 16.148438 3.726562 L 13.308594 7.363281 L 11.289062 5.785156 Z M 14.128906 2.148438 " clip-rule="nonzero"/></clipPath><clipPath id="708e988319"><path d="M 10 7 L 17 7 L 17 12 L 10 12 Z M 10 7 " clip-rule="nonzero"/></clipPath><clipPath id="2e1f4b4410"><path d="M 15.984375 6.515625 L 17.359375 9.832031 L 11.203125 12.386719 L 9.828125 9.070312 Z M 15.984375 6.515625 " clip-rule="nonzero"/></clipPath><clipPath id="a06e7cfa21"><path d="M 15.984375 6.515625 L 17.359375 9.832031 L 11.203125 12.386719 L 9.828125 9.070312 Z M 15.984375 6.515625 " clip-rule="nonzero"/></clipPath><clipPath id="652f377eeb"><path d="M 9 11 L 12 11 L 12 16 L 9 16 Z M 9 11 " clip-rule="nonzero"/></clipPath><clipPath id="57c52d3223"><path d="M 7.820312 12.007812 L 10.226562 10.539062 L 13.03125 15.132812 L 10.625 16.601562 Z M 7.820312 12.007812 " clip-rule="nonzero"/></clipPath><clipPath id="f35d1dc1f5"><path d="M 7.820312 12.007812 L 10.226562 10.539062 L 13.03125 15.132812 L 10.625 16.601562 Z M 7.820312 12.007812 " clip-rule="nonzero"/></clipPath><clipPath id="7fa343420c"><path d="M 5 7 L 10 7 L 10 12 L 5 12 Z M 5 7 " clip-rule="nonzero"/></clipPath><clipPath id="a72fab11f3"><path d="M 8.011719 6.503906 L 10.484375 8.734375 L 6.535156 13.113281 L 4.0625 10.878906 Z M 8.011719 6.503906 " clip-rule="nonzero"/></clipPath><clipPath id="5b0100cc4a"><path d="M 8.011719 6.503906 L 10.484375 8.734375 L 6.535156 13.113281 L 4.0625 10.878906 Z M 8.011719 6.503906 " clip-rule="nonzero"/></clipPath><clipPath id="005eb15b9a"><path d="M 9 5 L 12 5 L 12 9 L 9 9 Z M 9 5 " clip-rule="nonzero"/></clipPath><clipPath id="b3d2ed9fb9"><path d="M 8.984375 5.425781 L 10.921875 4.757812 L 12.089844 8.152344 L 10.152344 8.816406 Z M 8.984375 5.425781 " clip-rule="nonzero"/></clipPath><clipPath id="87ff099242"><path d="M 8.984375 5.425781 L 10.921875 4.757812 L 12.089844 8.152344 L 10.152344 8.816406 Z M 8.984375 5.425781 " clip-rule="nonzero"/></clipPath><clipPath id="e74b34f656"><path d="M 12 11 L 15 11 L 15 14 L 12 14 Z M 12 11 " clip-rule="nonzero"/></clipPath><clipPath id="b8155213de"><path d="M 15.15625 12.148438 L 14.691406 13.613281 L 12.246094 12.839844 L 12.710938 11.371094 Z M 15.15625 12.148438 " clip-rule="nonzero"/></clipPath><clipPath id="9758e4ddca"><path d="M 15.15625 12.148438 L 14.691406 13.613281 L 12.246094 12.839844 L 12.710938 11.371094 Z M 15.15625 12.148438 " clip-rule="nonzero"/></clipPath><clipPath id="3fc9b10c60"><path d="M 1 9 L 5 9 L 5 12 L 1 12 Z M 1 9 " clip-rule="nonzero"/></clipPath><clipPath id="3df7e1fa7f"><path d="M 0.898438 10.71875 L 1.609375 8.796875 L 4.976562 10.042969 L 4.265625 11.964844 Z M 0.898438 10.71875 " clip-rule="nonzero"/></clipPath><clipPath id="b04d8adaf0"><path d="M 0.898438 10.71875 L 1.609375 8.796875 L 4.976562 10.042969 L 4.265625 11.964844 Z M 0.898438 10.71875 " clip-rule="nonzero"/></clipPath><clipPath id="c3ffd8396d"><path d="M 3 13 L 8 13 L 8 16 L 3 16 Z M 3 13 " clip-rule="nonzero"/></clipPath><clipPath id="cc746b410e"><path d="M 6.816406 11.953125 L 8.324219 14.027344 L 4.382812 16.886719 L 2.875 14.8125 Z M 6.816406 11.953125 " clip-rule="nonzero"/></clipPath><clipPath id="13f1321fec"><path d="M 6.816406 11.953125 L 8.324219 14.027344 L 4.382812 16.886719 L 2.875 14.8125 Z M 6.816406 11.953125 " clip-rule="nonzero"/></clipPath><clipPath id="7a6cc3a5d7"><path d="M 2 5 L 7 5 L 7 9 L 2 9 Z M 2 5 " clip-rule="nonzero"/></clipPath><clipPath id="340fc212fd"><path d="M 1.421875 6.828125 L 3.007812 4.496094 L 7.457031 7.527344 L 5.871094 9.859375 Z M 1.421875 6.828125 " clip-rule="nonzero"/></clipPath><clipPath id="a7ddbfe46e"><path d="M 1.421875 6.828125 L 3.007812 4.496094 L 7.457031 7.527344 L 5.871094 9.859375 Z M 1.421875 6.828125 " clip-rule="nonzero"/></clipPath><clipPath id="5a591543ee"><path d="M 5 1 L 9 1 L 9 7 L 5 7 Z M 5 1 " clip-rule="nonzero"/></clipPath><clipPath id="e5bb87fe32"><path d="M 4.738281 1.589844 L 8.140625 0.449219 L 10.175781 6.527344 L 6.773438 7.667969 Z M 4.738281 1.589844 " clip-rule="nonzero"/></clipPath><clipPath id="91d17d4820"><path d="M 4.738281 1.589844 L 8.140625 0.449219 L 10.175781 6.527344 L 6.773438 7.667969 Z M 4.738281 1.589844 " clip-rule="nonzero"/></clipPath><clipPath id="a99e654113"><path d="M 10 2 L 12 2 L 12 5 L 10 5 Z M 10 2 " clip-rule="nonzero"/></clipPath><clipPath id="c2e127bfd6"><path d="M 10.679688 2.175781 L 11.886719 2.605469 L 11.027344 5.019531 L 9.820312 4.589844 Z M 10.679688 2.175781 " clip-rule="nonzero"/></clipPath><clipPath id="850548f1b2"><path d="M 10.679688 2.175781 L 11.886719 2.605469 L 11.027344 5.019531 L 9.820312 4.589844 Z M 10.679688 2.175781 " clip-rule="nonzero"/></clipPath><clipPath id="05ae701641"><rect x="0" width="18" y="0" height="17"/></clipPath></defs><g transform="matrix(1, 0, 0, 1, 39, 46)"><g clip-path="url(#d4ffcbe95b)"><g fill="#000000" fill-opacity="1"><g transform="translate(0.93261, 12.737278)"><g><path d="M 5.296875 0 L 0.296875 0 C 0.296875 -0.601562 0.382812 -1.238281 0.5625 -1.90625 C 0.75 -2.570312 0.984375 -3.226562 1.265625 -3.875 C 1.554688 -4.53125 1.863281 -5.144531 2.1875 -5.71875 C 2.507812 -6.300781 2.8125 -6.804688 3.09375 -7.234375 C 3.28125 -7.523438 3.484375 -7.816406 3.703125 -8.109375 C 3.929688 -8.398438 4.15625 -8.679688 4.375 -8.953125 C 4.15625 -9.660156 3.945312 -10.191406 3.75 -10.546875 C 3.550781 -10.910156 3.257812 -11.09375 2.875 -11.09375 L 2.875 -11.53125 C 3.726562 -11.53125 4.476562 -11.414062 5.125 -11.1875 C 5.769531 -10.96875 6.328125 -10.671875 6.796875 -10.296875 C 7.265625 -9.929688 7.648438 -9.515625 7.953125 -9.046875 C 8.253906 -8.585938 8.484375 -8.125 8.640625 -7.65625 C 9.003906 -6.570312 9.300781 -5.539062 9.53125 -4.5625 C 9.769531 -3.582031 10.0625 -2.695312 10.40625 -1.90625 C 10.613281 -1.425781 10.898438 -1.160156 11.265625 -1.109375 C 11.640625 -1.054688 11.960938 -1.171875 12.234375 -1.453125 L 12.515625 -1.15625 C 12.179688 -0.675781 11.769531 -0.34375 11.28125 -0.15625 C 10.789062 0.03125 10.328125 0.125 9.890625 0.125 C 9.273438 0.125 8.71875 -0.0234375 8.21875 -0.328125 C 7.71875 -0.640625 7.289062 -1.039062 6.9375 -1.53125 C 6.59375 -2.019531 6.320312 -2.539062 6.125 -3.09375 L 3.609375 -3.09375 C 3.804688 -2.476562 4.050781 -1.898438 4.34375 -1.359375 C 4.644531 -0.828125 4.960938 -0.375 5.296875 0 Z M 6 -3.5 C 5.75 -4.269531 5.5 -5.09375 5.25 -5.96875 C 5.007812 -6.851562 4.769531 -7.691406 4.53125 -8.484375 C 4.425781 -8.335938 4.320312 -8.195312 4.21875 -8.0625 C 4.125 -7.925781 4.023438 -7.78125 3.921875 -7.625 C 3.535156 -7.039062 3.328125 -6.382812 3.296875 -5.65625 C 3.265625 -4.9375 3.335938 -4.21875 3.515625 -3.5 Z M 6 -3.5 "/></g></g></g><g fill="#000000" fill-opacity="1"><g transform="translate(12.369706, 12.737278)"><g><path d="M 1.53125 -6.859375 C 1.226562 -7.117188 0.96875 -7.40625 0.75 -7.71875 C 0.53125 -8.03125 0.421875 -8.398438 0.421875 -8.828125 C 0.421875 -9.054688 0.472656 -9.320312 0.578125 -9.625 C 0.691406 -9.925781 0.867188 -10.222656 1.109375 -10.515625 C 1.359375 -10.816406 1.691406 -11.0625 2.109375 -11.25 C 2.523438 -11.445312 3.050781 -11.546875 3.6875 -11.546875 C 4.3125 -11.546875 4.847656 -11.457031 5.296875 -11.28125 C 5.742188 -11.101562 6.128906 -10.894531 6.453125 -10.65625 C 6.773438 -10.414062 7.070312 -10.207031 7.34375 -10.03125 C 7.625 -9.851562 7.910156 -9.765625 8.203125 -9.765625 C 8.597656 -9.765625 8.90625 -9.847656 9.125 -10.015625 C 9.351562 -10.179688 9.515625 -10.394531 9.609375 -10.65625 C 9.710938 -10.914062 9.765625 -11.179688 9.765625 -11.453125 L 10.203125 -11.453125 C 10.203125 -10.628906 10.066406 -9.929688 9.796875 -9.359375 C 9.535156 -8.796875 9.164062 -8.316406 8.6875 -7.921875 C 8.207031 -7.535156 7.648438 -7.203125 7.015625 -6.921875 C 6.390625 -6.648438 5.707031 -6.398438 4.96875 -6.171875 C 3.925781 -5.828125 3.082031 -5.367188 2.4375 -4.796875 C 1.800781 -4.222656 1.335938 -3.488281 1.046875 -2.59375 C 1.472656 -3.195312 1.992188 -3.625 2.609375 -3.875 C 3.222656 -4.132812 3.800781 -4.265625 4.34375 -4.265625 C 4.757812 -4.265625 5.160156 -4.195312 5.546875 -4.0625 C 5.941406 -3.9375 6.316406 -3.785156 6.671875 -3.609375 C 7.023438 -3.441406 7.34375 -3.289062 7.625 -3.15625 C 7.914062 -3.019531 8.164062 -2.953125 8.375 -2.953125 C 8.65625 -2.953125 8.847656 -3.039062 8.953125 -3.21875 C 9.066406 -3.40625 9.109375 -3.609375 9.078125 -3.828125 C 9.046875 -4.046875 8.957031 -4.207031 8.8125 -4.3125 L 9.125 -4.59375 C 9.4375 -4.332031 9.695312 -4.046875 9.90625 -3.734375 C 10.125 -3.421875 10.234375 -3.039062 10.234375 -2.59375 C 10.234375 -2.382812 10.179688 -2.128906 10.078125 -1.828125 C 9.972656 -1.523438 9.796875 -1.222656 9.546875 -0.921875 C 9.296875 -0.617188 8.960938 -0.367188 8.546875 -0.171875 C 8.128906 0.0234375 7.601562 0.125 6.96875 0.125 C 6.351562 0.125 5.820312 0.0351562 5.375 -0.140625 C 4.9375 -0.328125 4.550781 -0.539062 4.21875 -0.78125 C 3.882812 -1.03125 3.578125 -1.242188 3.296875 -1.421875 C 3.023438 -1.597656 2.742188 -1.6875 2.453125 -1.6875 C 2.066406 -1.6875 1.742188 -1.601562 1.484375 -1.4375 C 1.222656 -1.269531 1.03125 -1.054688 0.90625 -0.796875 C 0.78125 -0.535156 0.71875 -0.269531 0.71875 0 L 0.296875 0 C 0.296875 -1.601562 0.597656 -2.910156 1.203125 -3.921875 C 1.941406 -5.148438 3.15625 -6.023438 4.84375 -6.546875 C 5.175781 -6.648438 5.488281 -6.753906 5.78125 -6.859375 C 6.070312 -6.972656 6.359375 -7.085938 6.640625 -7.203125 C 6.578125 -7.179688 6.519531 -7.171875 6.46875 -7.171875 C 6.425781 -7.171875 6.375 -7.171875 6.3125 -7.171875 C 5.894531 -7.171875 5.488281 -7.234375 5.09375 -7.359375 C 4.707031 -7.492188 4.335938 -7.648438 3.984375 -7.828125 C 3.640625 -8.003906 3.320312 -8.15625 3.03125 -8.28125 C 2.738281 -8.414062 2.492188 -8.484375 2.296875 -8.484375 C 2.015625 -8.484375 1.816406 -8.390625 1.703125 -8.203125 C 1.585938 -8.023438 1.546875 -7.832031 1.578125 -7.625 C 1.609375 -7.414062 1.695312 -7.253906 1.84375 -7.140625 Z M 1.53125 -6.859375 "/></g></g></g></g></g><g transform="matrix(1, 0, 0, 1, 39, 46)"><g clip-path="url(#5a30b3aa73)"><g clip-path="url(#609086a81f)"><g fill="#000000" fill-opacity="1"><g transform="translate(0.936107, 12.736706)"><g><path d="M 5.304688 0.316406 L -0.0117188 0.316406 L -0.0117188 0 C -0.0117188 -0.636719 0.0820312 -1.300781 0.269531 -1.992188 C 0.453125 -2.671875 0.691406 -3.34375 0.984375 -4.011719 C 1.277344 -4.675781 1.585938 -5.296875 1.910156 -5.878906 C 2.234375 -6.460938 2.539062 -6.96875 2.828125 -7.402344 C 3.023438 -7.703125 3.234375 -8 3.464844 -8.300781 C 3.691406 -8.59375 3.910156 -8.875 4.125 -9.148438 L 4.375 -8.953125 L 4.070312 -8.859375 C 3.863281 -9.546875 3.664062 -10.0625 3.472656 -10.402344 C 3.332031 -10.652344 3.128906 -10.78125 2.871094 -10.78125 L 2.554688 -10.78125 L 2.554688 -11.851562 L 2.871094 -11.851562 C 3.761719 -11.851562 4.550781 -11.734375 5.230469 -11.496094 C 5.910156 -11.261719 6.5 -10.945312 6.996094 -10.550781 C 7.488281 -10.160156 7.898438 -9.71875 8.21875 -9.226562 C 8.539062 -8.742188 8.78125 -8.25 8.949219 -7.75 C 9.3125 -6.660156 9.613281 -5.621094 9.851562 -4.632812 C 10.082031 -3.671875 10.363281 -2.804688 10.695312 -2.035156 C 10.859375 -1.660156 11.066406 -1.453125 11.316406 -1.421875 C 11.578125 -1.382812 11.804688 -1.46875 12 -1.671875 L 12.230469 -1.910156 L 12.925781 -1.175781 L 12.773438 -0.964844 C 12.398438 -0.441406 11.9375 -0.0742188 11.386719 0.136719 C 10.859375 0.335938 10.363281 0.433594 9.898438 0.433594 C 9.21875 0.433594 8.605469 0.269531 8.050781 -0.0664062 C 7.515625 -0.394531 7.058594 -0.820312 6.683594 -1.34375 C 6.316406 -1.859375 6.035156 -2.40625 5.832031 -2.988281 L 6.132812 -3.089844 L 6.132812 -2.773438 L 3.613281 -2.773438 L 3.613281 -3.089844 L 3.917969 -3.1875 C 4.101562 -2.597656 4.339844 -2.042969 4.625 -1.519531 C 4.914062 -1.003906 5.214844 -0.566406 5.539062 -0.214844 L 6.019531 0.316406 Z M 5.304688 -0.316406 L 5.304688 0 L 5.070312 0.214844 C 4.714844 -0.175781 4.382812 -0.652344 4.070312 -1.214844 C 3.761719 -1.773438 3.511719 -2.367188 3.3125 -2.996094 L 3.183594 -3.40625 L 6.355469 -3.40625 L 6.429688 -3.195312 C 6.613281 -2.671875 6.867188 -2.175781 7.199219 -1.710938 C 7.523438 -1.257812 7.917969 -0.890625 8.382812 -0.609375 C 8.832031 -0.335938 9.335938 -0.199219 9.898438 -0.199219 C 10.285156 -0.199219 10.707031 -0.285156 11.160156 -0.457031 C 11.589844 -0.621094 11.957031 -0.910156 12.257812 -1.332031 L 12.515625 -1.148438 L 12.285156 -0.929688 L 12 -1.234375 L 12.226562 -1.453125 L 12.457031 -1.234375 C 12.113281 -0.875 11.703125 -0.726562 11.230469 -0.792969 C 10.75 -0.859375 10.375 -1.191406 10.113281 -1.785156 C 9.769531 -2.589844 9.476562 -3.488281 9.234375 -4.484375 C 9 -5.457031 8.703125 -6.480469 8.347656 -7.550781 C 8.199219 -7.996094 7.980469 -8.441406 7.691406 -8.878906 C 7.40625 -9.3125 7.042969 -9.703125 6.601562 -10.054688 C 6.160156 -10.402344 5.636719 -10.683594 5.023438 -10.898438 C 4.410156 -11.113281 3.691406 -11.21875 2.871094 -11.21875 L 2.871094 -11.535156 L 3.1875 -11.535156 L 3.1875 -11.097656 L 2.871094 -11.097656 L 2.871094 -11.414062 C 3.378906 -11.414062 3.761719 -11.179688 4.027344 -10.710938 C 4.238281 -10.332031 4.457031 -9.773438 4.679688 -9.042969 L 4.726562 -8.886719 L 4.621094 -8.753906 C 4.410156 -8.484375 4.191406 -8.207031 3.96875 -7.914062 C 3.746094 -7.628906 3.542969 -7.339844 3.355469 -7.054688 C 3.078125 -6.632812 2.78125 -6.140625 2.464844 -5.570312 C 2.148438 -5.003906 1.847656 -4.402344 1.566406 -3.757812 C 1.285156 -3.117188 1.054688 -2.476562 0.878906 -1.824219 C 0.707031 -1.1875 0.621094 -0.578125 0.621094 0 L 0.304688 0 L 0.304688 -0.316406 Z M 5.695312 -3.398438 C 5.445312 -4.179688 5.199219 -5.011719 4.957031 -5.894531 C 4.714844 -6.769531 4.472656 -7.597656 4.222656 -8.382812 L 4.527344 -8.480469 L 4.785156 -8.296875 C 4.683594 -8.148438 4.578125 -8.003906 4.476562 -7.867188 C 4.378906 -7.738281 4.28125 -7.597656 4.183594 -7.445312 C 3.832031 -6.917969 3.640625 -6.320312 3.609375 -5.652344 C 3.578125 -4.957031 3.648438 -4.261719 3.820312 -3.574219 L 3.511719 -3.496094 L 3.511719 -3.8125 L 5.996094 -3.8125 L 5.996094 -3.496094 Z M 6.429688 -3.179688 L 3.265625 -3.179688 L 3.207031 -3.417969 C 3.019531 -4.171875 2.941406 -4.925781 2.976562 -5.679688 C 3.015625 -6.464844 3.238281 -7.167969 3.652344 -7.789062 C 3.757812 -7.953125 3.863281 -8.105469 3.96875 -8.246094 C 4.066406 -8.378906 4.167969 -8.515625 4.265625 -8.660156 L 4.632812 -9.191406 L 4.828125 -8.574219 C 5.078125 -7.78125 5.324219 -6.945312 5.566406 -6.0625 C 5.808594 -5.1875 6.050781 -4.367188 6.296875 -3.59375 Z M 6.429688 -3.179688 "/></g></g></g></g><g clip-path="url(#c813ba1ea3)"><g fill="#000000" fill-opacity="1"><g transform="translate(12.369999, 12.736706)"><g><path d="M 1.332031 -6.617188 C 1.007812 -6.894531 0.726562 -7.199219 0.492188 -7.539062 C 0.234375 -7.90625 0.105469 -8.339844 0.105469 -8.832031 C 0.105469 -9.09375 0.164062 -9.394531 0.285156 -9.730469 C 0.402344 -10.074219 0.601562 -10.40625 0.871094 -10.726562 C 1.148438 -11.054688 1.519531 -11.328125 1.976562 -11.542969 C 2.433594 -11.761719 3.003906 -11.871094 3.683594 -11.871094 C 4.355469 -11.871094 4.929688 -11.773438 5.414062 -11.574219 C 5.882812 -11.386719 6.289062 -11.164062 6.636719 -10.914062 C 6.960938 -10.679688 7.257812 -10.476562 7.527344 -10.296875 C 7.753906 -10.152344 7.980469 -10.078125 8.207031 -10.078125 C 8.53125 -10.078125 8.777344 -10.140625 8.949219 -10.269531 C 9.121094 -10.402344 9.246094 -10.566406 9.320312 -10.765625 C 9.40625 -10.992188 9.445312 -11.21875 9.445312 -11.453125 L 9.445312 -11.769531 L 10.519531 -11.769531 L 10.519531 -11.453125 C 10.519531 -10.582031 10.375 -9.84375 10.089844 -9.230469 C 9.804688 -8.617188 9.40625 -8.101562 8.890625 -7.683594 C 8.390625 -7.277344 7.808594 -6.929688 7.152344 -6.644531 C 6.511719 -6.363281 5.816406 -6.101562 5.0625 -5.863281 C 4.070312 -5.539062 3.269531 -5.105469 2.660156 -4.5625 C 2.058594 -4.023438 1.625 -3.339844 1.347656 -2.503906 L 1.046875 -2.601562 L 0.789062 -2.785156 C 1.253906 -3.429688 1.816406 -3.894531 2.488281 -4.175781 C 3.140625 -4.453125 3.757812 -4.589844 4.339844 -4.589844 C 4.792969 -4.589844 5.230469 -4.515625 5.660156 -4.371094 C 6.066406 -4.230469 6.449219 -4.074219 6.808594 -3.898438 C 7.15625 -3.730469 7.472656 -3.578125 7.761719 -3.445312 C 8.003906 -3.328125 8.210938 -3.273438 8.378906 -3.273438 C 8.539062 -3.273438 8.640625 -3.3125 8.6875 -3.386719 C 8.757812 -3.503906 8.78125 -3.636719 8.765625 -3.785156 C 8.746094 -3.910156 8.707031 -4 8.636719 -4.046875 L 8.316406 -4.269531 L 9.105469 -5.015625 L 9.320312 -4.839844 C 9.660156 -4.558594 9.945312 -4.25 10.175781 -3.910156 C 10.425781 -3.542969 10.550781 -3.105469 10.550781 -2.601562 C 10.550781 -2.351562 10.492188 -2.058594 10.375 -1.71875 C 10.253906 -1.378906 10.058594 -1.046875 9.785156 -0.71875 C 9.507812 -0.382812 9.140625 -0.109375 8.683594 0.109375 C 8.222656 0.328125 7.652344 0.433594 6.976562 0.433594 C 6.316406 0.433594 5.742188 0.335938 5.261719 0.140625 C 4.792969 -0.046875 4.378906 -0.273438 4.027344 -0.53125 C 3.699219 -0.769531 3.398438 -0.976562 3.128906 -1.152344 C 2.90625 -1.300781 2.679688 -1.371094 2.449219 -1.371094 C 2.128906 -1.371094 1.867188 -1.304688 1.660156 -1.171875 C 1.449219 -1.035156 1.296875 -0.863281 1.199219 -0.65625 C 1.09375 -0.441406 1.042969 -0.222656 1.042969 0 L 1.042969 0.316406 L -0.0117188 0.316406 L -0.0117188 0 C -0.0117188 -1.65625 0.300781 -3.015625 0.925781 -4.078125 C 1.710938 -5.378906 2.988281 -6.300781 4.753906 -6.855469 C 5.074219 -6.957031 5.378906 -7.058594 5.667969 -7.164062 C 5.957031 -7.269531 6.242188 -7.378906 6.519531 -7.488281 L 6.636719 -7.195312 L 6.699219 -6.882812 C 6.625 -6.871094 6.550781 -6.863281 6.476562 -6.863281 L 6.316406 -6.863281 C 5.867188 -6.863281 5.429688 -6.929688 5 -7.070312 C 4.59375 -7.207031 4.207031 -7.363281 3.84375 -7.546875 C 3.5 -7.71875 3.183594 -7.867188 2.902344 -7.996094 C 2.65625 -8.105469 2.453125 -8.160156 2.296875 -8.160156 C 2.132812 -8.160156 2.023438 -8.121094 1.972656 -8.039062 C 1.902344 -7.925781 1.875 -7.800781 1.894531 -7.667969 C 1.910156 -7.546875 1.957031 -7.457031 2.035156 -7.394531 L 2.328125 -7.167969 L 1.546875 -6.433594 Z M 1.742188 -7.097656 L 1.535156 -6.855469 L 1.320312 -7.085938 L 1.625 -7.375 L 1.839844 -7.144531 L 1.648438 -6.894531 C 1.433594 -7.058594 1.304688 -7.289062 1.265625 -7.582031 C 1.226562 -7.867188 1.285156 -8.132812 1.4375 -8.375 C 1.613281 -8.65625 1.898438 -8.796875 2.296875 -8.796875 C 2.546875 -8.796875 2.832031 -8.722656 3.160156 -8.574219 C 3.453125 -8.441406 3.773438 -8.289062 4.128906 -8.113281 C 4.464844 -7.945312 4.820312 -7.796875 5.199219 -7.671875 C 5.5625 -7.554688 5.933594 -7.496094 6.316406 -7.496094 L 6.476562 -7.496094 C 6.507812 -7.496094 6.539062 -7.5 6.574219 -7.503906 L 6.753906 -6.902344 C 6.472656 -6.789062 6.179688 -6.675781 5.886719 -6.566406 C 5.585938 -6.460938 5.273438 -6.355469 4.941406 -6.25 C 3.328125 -5.746094 2.171875 -4.914062 1.472656 -3.757812 C 0.90625 -2.792969 0.621094 -1.542969 0.621094 0 L 0.304688 0 L 0.304688 -0.316406 L 0.726562 -0.316406 L 0.726562 0 L 0.410156 0 C 0.410156 -0.316406 0.480469 -0.628906 0.625 -0.929688 C 0.777344 -1.242188 1.003906 -1.5 1.3125 -1.699219 C 1.625 -1.902344 2.003906 -2.003906 2.449219 -2.003906 C 2.804688 -2.003906 3.148438 -1.898438 3.476562 -1.683594 C 3.753906 -1.5 4.0625 -1.285156 4.402344 -1.042969 C 4.710938 -0.816406 5.078125 -0.617188 5.5 -0.445312 C 5.90625 -0.28125 6.398438 -0.199219 6.976562 -0.199219 C 7.558594 -0.199219 8.039062 -0.285156 8.410156 -0.464844 C 8.785156 -0.640625 9.082031 -0.859375 9.300781 -1.121094 C 9.523438 -1.390625 9.683594 -1.660156 9.777344 -1.929688 C 9.871094 -2.199219 9.917969 -2.421875 9.917969 -2.601562 C 9.917969 -2.976562 9.828125 -3.292969 9.652344 -3.554688 C 9.457031 -3.84375 9.210938 -4.109375 8.917969 -4.347656 L 9.121094 -4.59375 L 9.339844 -4.363281 L 9.035156 -4.078125 L 8.816406 -4.308594 L 8.996094 -4.566406 C 9.21875 -4.414062 9.351562 -4.179688 9.390625 -3.867188 C 9.429688 -3.574219 9.375 -3.308594 9.234375 -3.0625 C 9.0625 -2.78125 8.777344 -2.640625 8.378906 -2.640625 C 8.117188 -2.640625 7.820312 -2.714844 7.492188 -2.871094 C 7.203125 -3.007812 6.882812 -3.160156 6.535156 -3.328125 C 6.195312 -3.492188 5.835938 -3.640625 5.453125 -3.769531 C 5.09375 -3.894531 4.722656 -3.957031 4.339844 -3.957031 C 3.84375 -3.957031 3.308594 -3.835938 2.734375 -3.59375 C 2.171875 -3.355469 1.699219 -2.964844 1.304688 -2.417969 L 0.746094 -2.699219 C 1.058594 -3.644531 1.554688 -4.421875 2.238281 -5.03125 C 2.914062 -5.636719 3.789062 -6.113281 4.871094 -6.464844 C 5.601562 -6.699219 6.277344 -6.953125 6.898438 -7.222656 C 7.503906 -7.488281 8.035156 -7.804688 8.492188 -8.175781 C 8.929688 -8.535156 9.273438 -8.976562 9.515625 -9.5 C 9.761719 -10.027344 9.886719 -10.675781 9.886719 -11.453125 L 10.203125 -11.453125 L 10.203125 -11.132812 L 9.761719 -11.132812 L 9.761719 -11.453125 L 10.078125 -11.453125 C 10.078125 -11.144531 10.023438 -10.84375 9.914062 -10.546875 C 9.796875 -10.230469 9.601562 -9.96875 9.328125 -9.761719 C 9.046875 -9.550781 8.671875 -9.445312 8.207031 -9.445312 C 7.851562 -9.445312 7.511719 -9.554688 7.183594 -9.765625 C 6.902344 -9.949219 6.597656 -10.160156 6.265625 -10.402344 C 5.960938 -10.621094 5.597656 -10.820312 5.175781 -10.988281 C 4.769531 -11.152344 4.269531 -11.234375 3.683594 -11.234375 C 3.097656 -11.234375 2.621094 -11.148438 2.246094 -10.972656 C 1.871094 -10.792969 1.574219 -10.574219 1.355469 -10.316406 C 1.132812 -10.054688 0.976562 -9.789062 0.882812 -9.523438 C 0.785156 -9.253906 0.738281 -9.023438 0.738281 -8.832031 C 0.738281 -8.472656 0.828125 -8.160156 1.011719 -7.898438 C 1.214844 -7.605469 1.460938 -7.339844 1.742188 -7.097656 Z M 1.742188 -7.097656 "/></g></g></g></g></g></g><g clip-path="url(#768c484533)"><g transform="matrix(1, 0, 0, 1, 47, 29)"><g clip-path="url(#b1c762fa96)"><g clip-path="url(#6e5070a5bf)"><g mask="url(#bfe8fe29fa)"><g transform="matrix(1, 0, 0, 1, -0.000000000000007105, -0.000000000000014211)"><g clip-path="url(#3e10c15bb6)"><g clip-path="url(#e3669a1e5b)"><path fill="url(#d4a394f732)" d="M 1.640625 0.59375 L 1.640625 54.59375 L 71.386719 54.59375 L 71.386719 0.59375 Z M 1.640625 0.59375 " fill-rule="nonzero"/></g></g></g></g></g></g></g></g><g transform="matrix(1, 0, 0, 1, 61, 53)"><g clip-path="url(#014c92d120)"><g fill="#000000" fill-opacity="1"><g transform="translate(1.019021, 6.535028)"><g><path d="M 0.1875 0 L 0.1875 -3.765625 C 0.25 -3.671875 0.347656 -3.59375 0.484375 -3.53125 C 0.617188 -3.46875 0.800781 -3.421875 1.03125 -3.390625 C 1.175781 -3.367188 1.316406 -3.34375 1.453125 -3.3125 C 1.585938 -3.289062 1.703125 -3.238281 1.796875 -3.15625 C 1.890625 -3.082031 1.9375 -2.945312 1.9375 -2.75 L 1.9375 0 Z M 2.09375 -4.53125 C 2.09375 -4.25 2 -4.019531 1.8125 -3.84375 C 1.625 -3.664062 1.375 -3.578125 1.0625 -3.578125 C 0.75 -3.578125 0.5 -3.664062 0.3125 -3.84375 C 0.132812 -4.019531 0.046875 -4.25 0.046875 -4.53125 C 0.046875 -4.8125 0.132812 -5.039062 0.3125 -5.21875 C 0.5 -5.394531 0.75 -5.484375 1.0625 -5.484375 C 1.375 -5.484375 1.625 -5.394531 1.8125 -5.21875 C 2 -5.039062 2.09375 -4.8125 2.09375 -4.53125 Z M 2.09375 -4.53125 "/></g></g></g><g fill="#000000" fill-opacity="1"><g transform="translate(3.274152, 6.535028)"><g><path d="M 0.1875 -4.328125 L 0.390625 -4.328125 C 0.390625 -4.117188 0.425781 -3.960938 0.5 -3.859375 C 0.582031 -3.765625 0.6875 -3.710938 0.8125 -3.703125 C 0.945312 -3.691406 1.09375 -3.707031 1.25 -3.75 C 1.40625 -3.78125 1.5625 -3.847656 1.71875 -3.953125 C 1.875 -4.054688 2.035156 -4.15625 2.203125 -4.25 C 2.378906 -4.34375 2.566406 -4.390625 2.765625 -4.390625 C 3.234375 -4.390625 3.617188 -4.289062 3.921875 -4.09375 C 4.222656 -3.90625 4.4375 -3.648438 4.5625 -3.328125 C 4.695312 -3.003906 4.726562 -2.632812 4.65625 -2.21875 C 4.613281 -1.894531 4.59375 -1.617188 4.59375 -1.390625 C 4.59375 -1.171875 4.671875 -0.992188 4.828125 -0.859375 C 4.929688 -0.765625 5.046875 -0.726562 5.171875 -0.75 C 5.304688 -0.78125 5.4375 -0.859375 5.5625 -0.984375 L 5.6875 -0.859375 C 5.550781 -0.679688 5.367188 -0.515625 5.140625 -0.359375 C 4.921875 -0.210938 4.6875 -0.101562 4.4375 -0.03125 C 4.1875 0.0390625 3.941406 0.0507812 3.703125 0 C 3.460938 -0.0390625 3.253906 -0.171875 3.078125 -0.390625 C 2.953125 -0.546875 2.867188 -0.722656 2.828125 -0.921875 C 2.796875 -1.128906 2.785156 -1.34375 2.796875 -1.5625 C 2.816406 -1.789062 2.84375 -2.023438 2.875 -2.265625 C 2.9375 -2.671875 2.960938 -2.992188 2.953125 -3.234375 C 2.941406 -3.484375 2.898438 -3.664062 2.828125 -3.78125 C 2.765625 -3.90625 2.679688 -3.976562 2.578125 -4 C 2.472656 -4.03125 2.359375 -4.023438 2.234375 -3.984375 C 2.117188 -3.941406 2.039062 -3.863281 2 -3.75 C 1.957031 -3.644531 1.9375 -3.515625 1.9375 -3.359375 L 1.9375 0 L 0.1875 0 Z M 0.1875 -4.328125 "/></g></g></g></g></g><g transform="matrix(1, 0, 0, 1, 60, 38)"><g clip-path="url(#05ae701641)"><g clip-path="url(#8e00b71431)"><g clip-path="url(#cda7dc83b0)"><g clip-path="url(#aafcff6cdc)"><path fill="#bc3fde" d="M 14.546875 5.449219 C 13.824219 6.371094 12.398438 6.464844 12.398438 6.464844 C 12.398438 6.464844 12.121094 5.042969 12.84375 4.117188 C 13.5625 3.195312 15.007812 3.121094 15.007812 3.121094 C 15.007812 3.121094 15.265625 4.527344 14.546875 5.449219 " fill-opacity="1" fill-rule="nonzero"/></g></g></g><g clip-path="url(#708e988319)"><g clip-path="url(#2e1f4b4410)"><g clip-path="url(#a06e7cfa21)"><path fill="#7ed957" d="M 14.191406 10.890625 C 12.652344 11.527344 10.824219 10.644531 10.824219 10.644531 C 10.824219 10.644531 11.476562 8.691406 13.011719 8.054688 C 14.550781 7.414062 16.390625 8.332031 16.390625 8.332031 C 16.390625 8.332031 15.726562 10.253906 14.191406 10.890625 " fill-opacity="1" fill-rule="nonzero"/></g></g></g><g clip-path="url(#652f377eeb)"><g clip-path="url(#57c52d3223)"><g clip-path="url(#f35d1dc1f5)"><path fill="#ff66c4" d="M 11.453125 12.875 C 12.136719 13.996094 11.667969 15.53125 11.667969 15.53125 C 11.667969 15.53125 10.066406 15.261719 9.382812 14.140625 C 8.695312 13.019531 9.1875 11.46875 9.1875 11.46875 C 9.1875 11.46875 10.765625 11.753906 11.453125 12.875 " fill-opacity="1" fill-rule="nonzero"/></g></g></g><g clip-path="url(#7fa343420c)"><g clip-path="url(#a72fab11f3)"><g clip-path="url(#5b0100cc4a)"><path fill="#04a0fa" d="M 8.242188 10.707031 C 7.246094 11.808594 5.4375 11.796875 5.4375 11.796875 C 5.4375 11.796875 5.214844 9.976562 6.210938 8.875 C 7.203125 7.773438 9.035156 7.808594 9.035156 7.808594 C 9.035156 7.808594 9.234375 9.609375 8.242188 10.707031 " fill-opacity="1" fill-rule="nonzero"/></g></g></g><g clip-path="url(#005eb15b9a)"><g clip-path="url(#b3d2ed9fb9)"><g clip-path="url(#87ff099242)"><path fill="#000000" d="M 11.238281 6.519531 C 11.527344 7.351562 10.996094 8.289062 10.996094 8.289062 C 10.996094 8.289062 9.988281 7.882812 9.699219 7.046875 C 9.414062 6.214844 9.957031 5.269531 9.957031 5.269531 C 9.957031 5.269531 10.953125 5.683594 11.238281 6.519531 " fill-opacity="1" fill-rule="nonzero"/></g></g></g><g clip-path="url(#e74b34f656)"><g clip-path="url(#b8155213de)"><g clip-path="url(#9758e4ddca)"><path fill="#5e17eb" d="M 13.511719 13.003906 C 12.890625 12.808594 12.566406 12.082031 12.566406 12.082031 C 12.566406 12.082031 13.253906 11.660156 13.875 11.855469 C 14.5 12.054688 14.820312 12.796875 14.820312 12.796875 C 14.820312 12.796875 14.132812 13.203125 13.511719 13.003906 " fill-opacity="1" fill-rule="nonzero"/></g></g></g><g clip-path="url(#3fc9b10c60)"><g clip-path="url(#3df7e1fa7f)"><g clip-path="url(#b04d8adaf0)"><path fill="#5e17eb" d="M 3.171875 9.667969 C 4 9.972656 4.390625 10.976562 4.390625 10.976562 C 4.390625 10.976562 3.4375 11.5 2.609375 11.191406 C 1.78125 10.886719 1.398438 9.867188 1.398438 9.867188 C 1.398438 9.867188 2.347656 9.359375 3.171875 9.667969 " fill-opacity="1" fill-rule="nonzero"/></g></g></g><g clip-path="url(#c3ffd8396d)"><g clip-path="url(#cc746b410e)"><g clip-path="url(#13f1321fec)"><path fill="#000000" d="M 6.296875 15.277344 C 5.339844 15.972656 3.925781 15.664062 3.925781 15.664062 C 3.925781 15.664062 4.054688 14.203125 5.015625 13.507812 C 5.972656 12.8125 7.398438 13.144531 7.398438 13.144531 C 7.398438 13.144531 7.257812 14.582031 6.296875 15.277344 " fill-opacity="1" fill-rule="nonzero"/></g></g></g><g clip-path="url(#7a6cc3a5d7)"><g clip-path="url(#340fc212fd)"><g clip-path="url(#a7ddbfe46e)"><path fill="#7ed957" d="M 5.085938 6.121094 C 6.171875 6.859375 6.378906 8.449219 6.378906 8.449219 C 6.378906 8.449219 4.808594 8.863281 3.722656 8.125 C 2.636719 7.386719 2.445312 5.773438 2.445312 5.773438 C 2.445312 5.773438 4 5.378906 5.085938 6.121094 " fill-opacity="1" fill-rule="nonzero"/></g></g></g><g clip-path="url(#5a591543ee)"><g clip-path="url(#e5bb87fe32)"><g clip-path="url(#91d17d4820)"><path fill="#ff66c4" d="M 8.777344 3.585938 C 9.28125 5.089844 8.316406 6.765625 8.316406 6.765625 C 8.316406 6.765625 6.503906 6.019531 6 4.515625 C 5.496094 3.011719 6.492188 1.324219 6.492188 1.324219 C 6.492188 1.324219 8.269531 2.082031 8.777344 3.585938 " fill-opacity="1" fill-rule="nonzero"/></g></g></g><g clip-path="url(#a99e654113)"><g clip-path="url(#c2e127bfd6)"><g clip-path="url(#850548f1b2)"><path fill="#7ed957" d="M 11.441406 3.765625 C 11.234375 4.351562 10.53125 4.636719 10.53125 4.636719 C 10.53125 4.636719 10.152344 3.96875 10.359375 3.382812 C 10.570312 2.796875 11.285156 2.515625 11.285156 2.515625 C 11.285156 2.515625 11.648438 3.179688 11.441406 3.765625 " fill-opacity="1" fill-rule="nonzero"/></g></g></g></g></g><g fill="#000000" fill-opacity="1"><g transform="translate(69.074024, 60.344636)"><g><path d="M 3.726562 0.0507812 L 2.257812 -5.128906 L 2.4375 -5.179688 L 2.4375 -4.988281 L 2.394531 -4.988281 L 2.394531 -5.179688 L 2.582031 -5.195312 C 2.597656 -5.0625 2.609375 -4.875 2.625 -4.644531 C 2.640625 -4.414062 2.65625 -4.167969 2.667969 -3.898438 C 2.679688 -3.632812 2.6875 -3.371094 2.6875 -3.125 L 2.6875 0.1875 L 0.589844 0.1875 L 0.589844 -7.378906 L 3.503906 -7.378906 L 5.046875 -2.136719 L 4.863281 -2.085938 L 4.863281 -2.273438 L 4.902344 -2.273438 L 4.902344 -2.085938 L 4.722656 -2.136719 L 6.230469 -7.378906 L 9.15625 -7.378906 L 9.15625 0.1875 L 6.992188 0.1875 L 6.992188 -3.152344 C 6.992188 -3.378906 6.996094 -3.625 7.003906 -3.890625 C 7.011719 -4.152344 7.023438 -4.398438 7.035156 -4.628906 C 7.046875 -4.863281 7.054688 -5.046875 7.066406 -5.183594 L 7.253906 -5.167969 L 7.253906 -4.980469 L 7.210938 -4.980469 L 7.210938 -5.167969 L 7.390625 -5.117188 L 5.902344 0.1875 L 3.765625 0.1875 Z M 4.089844 -0.0507812 L 3.910156 0 L 3.910156 -0.1875 L 5.757812 -0.1875 L 5.757812 0 L 5.578125 -0.0507812 L 7.066406 -5.359375 L 7.457031 -5.359375 L 7.441406 -5.15625 C 7.433594 -5.023438 7.421875 -4.839844 7.410156 -4.609375 C 7.398438 -4.382812 7.390625 -4.136719 7.382812 -3.878906 C 7.375 -3.617188 7.371094 -3.375 7.371094 -3.152344 L 7.371094 0 L 7.179688 0 L 7.179688 -0.1875 L 8.964844 -0.1875 L 8.964844 0 L 8.777344 0 L 8.777344 -7.191406 L 8.964844 -7.191406 L 8.964844 -7 L 6.375 -7 L 6.375 -7.191406 L 6.554688 -7.136719 L 5.046875 -1.894531 L 4.722656 -1.894531 L 3.183594 -7.136719 L 3.363281 -7.191406 L 3.363281 -7 L 0.777344 -7 L 0.777344 -7.191406 L 0.964844 -7.191406 L 0.964844 0 L 0.777344 0 L 0.777344 -0.1875 L 2.5 -0.1875 L 2.5 0 L 2.308594 0 L 2.308594 -3.125 C 2.308594 -3.367188 2.304688 -3.617188 2.289062 -3.882812 C 2.277344 -4.144531 2.261719 -4.390625 2.25 -4.621094 C 2.234375 -4.847656 2.21875 -5.027344 2.207031 -5.160156 L 2.1875 -5.367188 L 2.582031 -5.367188 Z M 4.089844 -0.0507812 "/></g></g></g><g fill="#000000" fill-opacity="1"><g transform="translate(78.806194, 60.344636)"><g><path d="M 3.171875 -5.859375 C 3.742188 -5.859375 4.234375 -5.757812 4.65625 -5.558594 C 5.085938 -5.351562 5.414062 -5.042969 5.648438 -4.632812 C 5.878906 -4.226562 5.992188 -3.722656 5.992188 -3.125 L 5.992188 -2.078125 L 2.367188 -2.078125 L 2.367188 -2.265625 L 2.554688 -2.277344 C 2.566406 -2.035156 2.65625 -1.839844 2.820312 -1.6875 C 2.988281 -1.535156 3.242188 -1.457031 3.585938 -1.457031 C 3.917969 -1.457031 4.222656 -1.492188 4.5 -1.554688 C 4.777344 -1.621094 5.0625 -1.722656 5.359375 -1.863281 L 5.628906 -1.988281 L 5.628906 -0.195312 L 5.527344 -0.140625 C 5.242188 0.0078125 4.933594 0.117188 4.597656 0.183594 C 4.265625 0.253906 3.851562 0.289062 3.355469 0.289062 C 2.765625 0.289062 2.238281 0.183594 1.769531 -0.03125 C 1.292969 -0.246094 0.917969 -0.582031 0.640625 -1.035156 C 0.371094 -1.484375 0.234375 -2.054688 0.234375 -2.75 C 0.234375 -3.449219 0.355469 -4.027344 0.601562 -4.488281 C 0.847656 -4.953125 1.199219 -5.300781 1.644531 -5.527344 C 2.085938 -5.75 2.59375 -5.859375 3.171875 -5.859375 Z M 3.171875 -5.480469 C 2.65625 -5.480469 2.203125 -5.382812 1.816406 -5.191406 C 1.4375 -5 1.144531 -4.707031 0.933594 -4.308594 C 0.71875 -3.90625 0.613281 -3.386719 0.613281 -2.75 C 0.613281 -2.125 0.730469 -1.617188 0.964844 -1.230469 C 1.199219 -0.84375 1.519531 -0.558594 1.925781 -0.375 C 2.34375 -0.183594 2.820312 -0.0898438 3.355469 -0.0898438 C 3.828125 -0.0898438 4.214844 -0.121094 4.519531 -0.183594 C 4.820312 -0.246094 5.097656 -0.34375 5.351562 -0.476562 L 5.441406 -0.308594 L 5.25 -0.308594 L 5.25 -1.691406 L 5.441406 -1.691406 L 5.519531 -1.519531 C 5.199219 -1.371094 4.886719 -1.261719 4.585938 -1.1875 C 4.28125 -1.117188 3.949219 -1.078125 3.585938 -1.078125 C 3.140625 -1.078125 2.800781 -1.191406 2.5625 -1.410156 C 2.324219 -1.632812 2.195312 -1.914062 2.175781 -2.257812 L 2.164062 -2.457031 L 5.804688 -2.457031 L 5.804688 -2.265625 L 5.613281 -2.265625 L 5.613281 -3.125 C 5.613281 -3.65625 5.515625 -4.097656 5.320312 -4.445312 C 5.125 -4.789062 4.851562 -5.046875 4.492188 -5.21875 C 4.125 -5.394531 3.683594 -5.480469 3.171875 -5.480469 Z M 3.242188 -4.171875 C 3.066406 -4.171875 2.917969 -4.121094 2.800781 -4.011719 C 2.683594 -3.902344 2.617188 -3.71875 2.59375 -3.460938 L 2.40625 -3.476562 L 2.40625 -3.667969 L 4.058594 -3.667969 L 4.058594 -3.476562 L 3.867188 -3.472656 C 3.867188 -3.609375 3.839844 -3.734375 3.789062 -3.84375 C 3.742188 -3.945312 3.671875 -4.027344 3.582031 -4.085938 C 3.496094 -4.144531 3.378906 -4.171875 3.242188 -4.171875 Z M 3.242188 -4.550781 C 3.457031 -4.550781 3.640625 -4.5 3.789062 -4.402344 C 3.941406 -4.304688 4.054688 -4.171875 4.128906 -4.003906 C 4.203125 -3.847656 4.242188 -3.671875 4.246094 -3.480469 L 4.25 -3.289062 L 2.199219 -3.289062 L 2.214844 -3.492188 C 2.246094 -3.847656 2.355469 -4.109375 2.542969 -4.285156 C 2.734375 -4.464844 2.964844 -4.550781 3.242188 -4.550781 Z M 3.242188 -4.550781 "/></g></g></g><g fill="#000000" fill-opacity="1"><g transform="translate(85.028884, 60.344636)"><g><path d="M 4.152344 -5.859375 C 4.773438 -5.859375 5.285156 -5.679688 5.683594 -5.324219 C 6.089844 -4.960938 6.292969 -4.394531 6.292969 -3.625 L 6.292969 0.1875 L 3.992188 0.1875 L 3.992188 -3.039062 C 3.992188 -3.375 3.945312 -3.625 3.855469 -3.785156 C 3.820312 -3.847656 3.777344 -3.894531 3.722656 -3.925781 C 3.664062 -3.957031 3.59375 -3.972656 3.507812 -3.972656 C 3.359375 -3.972656 3.242188 -3.945312 3.148438 -3.886719 C 3.0625 -3.835938 2.996094 -3.753906 2.949219 -3.640625 C 2.832031 -3.371094 2.777344 -2.96875 2.777344 -2.4375 L 2.777344 0.1875 L 0.476562 0.1875 L 0.476562 -5.761719 L 2.25 -5.761719 L 2.554688 -4.898438 L 2.375 -4.835938 L 2.375 -5.023438 L 2.449219 -5.023438 L 2.449219 -4.835938 L 2.292969 -4.9375 C 2.421875 -5.132812 2.578125 -5.300781 2.757812 -5.4375 C 2.941406 -5.574219 3.148438 -5.679688 3.382812 -5.753906 C 3.613281 -5.824219 3.871094 -5.859375 4.152344 -5.859375 Z M 4.152344 -5.480469 C 3.90625 -5.480469 3.6875 -5.453125 3.492188 -5.390625 C 3.300781 -5.332031 3.132812 -5.246094 2.988281 -5.136719 C 2.839844 -5.023438 2.710938 -4.890625 2.605469 -4.730469 L 2.550781 -4.644531 L 2.242188 -4.644531 L 1.9375 -5.507812 L 2.113281 -5.574219 L 2.113281 -5.382812 L 0.664062 -5.382812 L 0.664062 -5.574219 L 0.851562 -5.574219 L 0.851562 0 L 0.664062 0 L 0.664062 -0.1875 L 2.585938 -0.1875 L 2.585938 0 L 2.398438 0 L 2.398438 -2.4375 C 2.398438 -3.019531 2.464844 -3.46875 2.601562 -3.789062 C 2.679688 -3.976562 2.796875 -4.117188 2.953125 -4.210938 C 3.105469 -4.304688 3.289062 -4.351562 3.507812 -4.351562 C 3.65625 -4.351562 3.789062 -4.320312 3.902344 -4.253906 C 4.019531 -4.191406 4.113281 -4.097656 4.183594 -3.972656 C 4.308594 -3.753906 4.371094 -3.441406 4.371094 -3.039062 L 4.371094 0 L 4.179688 0 L 4.179688 -0.1875 L 6.101562 -0.1875 L 6.101562 0 L 5.914062 0 L 5.914062 -3.625 C 5.914062 -4.28125 5.753906 -4.753906 5.433594 -5.042969 C 5.105469 -5.335938 4.675781 -5.480469 4.152344 -5.480469 Z M 4.152344 -5.480469 "/></g></g></g><g fill="#000000" fill-opacity="1"><g transform="translate(91.772589, 60.344636)"><g><path d="M 6.273438 -5.574219 L 6.273438 0.1875 L 4.5 0.1875 L 4.214844 -0.632812 L 4.390625 -0.695312 L 4.390625 -0.503906 L 4.277344 -0.503906 L 4.277344 -0.695312 L 4.441406 -0.59375 C 4.3125 -0.382812 4.148438 -0.210938 3.949219 -0.0820312 C 3.753906 0.046875 3.542969 0.140625 3.308594 0.199219 C 3.078125 0.257812 2.84375 0.289062 2.597656 0.289062 C 2.203125 0.289062 1.847656 0.210938 1.527344 0.0585938 C 1.199219 -0.101562 0.941406 -0.347656 0.75 -0.683594 C 0.558594 -1.015625 0.464844 -1.433594 0.464844 -1.941406 L 0.464844 -5.761719 L 2.765625 -5.761719 L 2.765625 -2.527344 C 2.765625 -2.199219 2.808594 -1.957031 2.898438 -1.796875 C 2.933594 -1.734375 2.976562 -1.6875 3.027344 -1.65625 C 3.085938 -1.625 3.15625 -1.609375 3.242188 -1.609375 C 3.433594 -1.609375 3.574219 -1.65625 3.671875 -1.753906 C 3.777344 -1.855469 3.851562 -2.019531 3.898438 -2.238281 C 3.945312 -2.480469 3.972656 -2.777344 3.972656 -3.132812 L 3.972656 -5.761719 L 6.273438 -5.761719 Z M 5.894531 -5.574219 L 6.082031 -5.574219 L 6.082031 -5.382812 L 4.160156 -5.382812 L 4.160156 -5.574219 L 4.351562 -5.574219 L 4.351562 -3.132812 C 4.351562 -2.753906 4.320312 -2.429688 4.265625 -2.160156 C 4.207031 -1.867188 4.097656 -1.640625 3.9375 -1.484375 C 3.765625 -1.316406 3.535156 -1.230469 3.242188 -1.230469 C 3.089844 -1.230469 2.957031 -1.265625 2.84375 -1.328125 C 2.726562 -1.390625 2.636719 -1.488281 2.566406 -1.613281 C 2.449219 -1.832031 2.386719 -2.136719 2.386719 -2.527344 L 2.386719 -5.574219 L 2.578125 -5.574219 L 2.578125 -5.382812 L 0.652344 -5.382812 L 0.652344 -5.574219 L 0.84375 -5.574219 L 0.84375 -1.941406 C 0.84375 -1.5 0.921875 -1.144531 1.078125 -0.871094 C 1.230469 -0.601562 1.433594 -0.40625 1.691406 -0.285156 C 1.960938 -0.15625 2.261719 -0.0898438 2.597656 -0.0898438 C 2.8125 -0.0898438 3.015625 -0.117188 3.214844 -0.164062 C 3.40625 -0.214844 3.582031 -0.292969 3.738281 -0.394531 C 3.890625 -0.496094 4.019531 -0.628906 4.117188 -0.792969 L 4.171875 -0.882812 L 4.527344 -0.882812 L 4.8125 -0.0625 L 4.632812 0 L 4.632812 -0.1875 L 6.082031 -0.1875 L 6.082031 0 L 5.894531 0 Z M 5.894531 -5.574219 "/></g></g></g></svg>